<svg version="1.1" id="Layer_1" xmlns="http://www.w3.org/2000/svg" xmlns:xlink="http://www.w3.org/1999/xlink" x="0px" y="0px"
	 width="219px" height="260px" viewBox="0 0 219 260" style="enable-background:new 0 0 219 260;" xml:space="preserve">
<path style="fill: #bc0303;" d="M109.5,2C50.3,2,2.3,50,2.3,109.2c0,51.7,36.6,94.9,85.4,105c-1.6-1.2-3.1-2.4-4.4-3.9c-3.3-3.8-4.2-8.7-2.4-13.1
	c3.1-7.3,10-11.6,18.5-11.6c6,0,12.8,2.2,18.1,5.9c1.9,1.3,3.4,2.6,4.7,3.7c0.6,0.6,1.5,1.3,2,1.7c0.2-0.1,0.6-0.2,1-0.5
	c0.7-0.4,1.8-1.8,4.3-9.9c2.3-7.5,6.2-14.1,11.1-19c5.9-5.9,13-9.1,20.5-9.3c0.3,0,0.5,0,0.8,0c9,0,15.8,4.5,18.2,12
	c2.3,7-0.1,15.3-5.6,19.3c-2.1,1.5-4.4,3.7-6.4,6c0.2,0.2,0.4,0.4,0.5,0.6c0.2,0.2,0.3,0.4,0.5,0.6c0.7,0.1,1.4,0.2,2,0.4
	c27.6-19.4,45.7-51.5,45.7-87.8C216.7,50,168.7,2,109.5,2z M79.2,98.2c0.1,0.3,0.2,0.5,0.3,0.8c2.9,9.7-2.6,20-12.3,23
	s-20-2.6-23-12.3c-0.1-0.3-0.1-0.5-0.2-0.8l-6.9,2.1l-2.9-9.6l46.5-14l2.9,9.6L79.2,98.2z M148.4,34.8l-0.2,10
	C128.8,44.5,116.9,56,112.7,66l-9.2-4C108.9,49.2,124.1,34.3,148.4,34.8z M100.4,161c-3.8,0-7.2-0.3-10.1-0.6l1.9-15.6
	c12,1.5,34.8,0.9,52.2-19.4l11.9,10.2C138.4,156.5,116.3,161,100.4,161z M147.7,97.7c-9.7,2.9-20-2.6-23-12.3
	c-2.9-9.7,2.6-20,12.3-23c9.7-2.9,20,2.6,23,12.3C163,84.4,157.5,94.7,147.7,97.7z M139.8,258c-3,0-6.1-0.3-9.5-1.1
	c-9.4-2-15.2-9.9-17-20.5c-3.9-23.5-25-32.1-23.5-35.5c1.7-4.1,5.4-5.6,9.4-5.6c4.4,0,9.2,1.8,12.5,4.1c4.8,3.3,7.4,7.3,12,7.3
	c1.6,0,3.5-0.5,5.8-1.7c4.1-2.1,6.1-5.6,9.2-15.8c3.6-11.7,11.9-21.1,22.5-21.4c0.2,0,0.3,0,0.5,0c11.4,0,10.4,11,6.8,13.6
	c-7.7,5.6-15.4,16.8-15.4,16.8s4.7,0.3,7.6,3.9c0.2,0.3,0.4,0.5,0.6,0.8c2.3,2.9,2.3,3.7,2.3,3.8c0,0,1.1-0.4,2.8-0.4
	c2.1,0,5,0.7,7.7,3.7C182.6,219.3,171.7,258,139.8,258z"/>
</svg>